<svg  xmlns="http://www.w3.org/2000/svg" viewBox="0 0 317.94 41.06" preserveAspectRatio="xMidYMid" fill="white"><g><path d="M85,27.68l4.71,4.77c-4.24,4.77-9.43,6.68-15.63,6.68-11.24,0-19.4-8-19.4-19.08S62.87,1,74.11,1c6.2,0,11.39,1.9,15.63,6.67L85,12.42a14.43,14.43,0,0,0-10.39-5c-7.21,0-12.19,4.72-12.19,12.61s5,12.62,12.19,12.62C78.83,32.67,82.38,30.49,85,27.68Z"></path><path d="M94.52.45h6.89V38.6H94.52Z"></path><path d="M131.4,27.21H113.7c.48,4.13,3,6.3,6.68,6.3A8.85,8.85,0,0,0,127,31l3.92,3.92a15.66,15.66,0,0,1-11.13,4.24c-8,0-13.19-5.19-13.19-13.51s5.93-13.52,13.09-13.52c7.57,0,11.76,4.67,11.76,12.3Zm-7.1-4.66c0-2.87-1.59-5.15-4.88-5.15-3,0-4.87,1.86-5.56,5.15Z"></path><path d="M151.91,35a9.37,9.37,0,0,1-8.37,4.13c-4.61,0-7.95-3-7.95-7.42,0-5.56,4.82-8.64,15.9-8.64V21.54c0-2.44-1.49-4.14-4.61-4.14a8.76,8.76,0,0,0-7.21,3.71l-3.92-3.92a14.13,14.13,0,0,1,11.5-5.09c6.89,0,11.13,3,11.13,10.5v16h-6.47Zm-9.27-4c0,1.59,1.16,2.81,3.6,2.81,3.29,0,5.25-2.12,5.25-5.4v-1C144.28,27.47,142.64,28.75,142.64,31Z"></path><path d="M171.57,29.22V38.6h-6.88v-26h6.88V18c1.81-4.3,5.25-5.89,9.23-5.89v7.32C173.48,19.42,171.57,22.76,171.57,29.22Z"></path><path d="M198.13,39.13a21.36,21.36,0,0,1-13.78-4.61l3.71-5.77a17.4,17.4,0,0,0,10.33,3.92c4.24,0,6.31-1.54,6.31-4.35,0-6.89-18.76-1.8-18.76-16.11,0-7,5.77-11.23,13.3-11.23A18.35,18.35,0,0,1,211.8,5.37L208.09,11a14.13,14.13,0,0,0-8.74-3.55c-3.45,0-5.67,1.64-5.67,4.19,0,7.31,18.7,2,18.7,16C212.38,34.26,207.35,39.13,198.13,39.13Z"></path><path d="M240.31,16.56,236,20.9a7.47,7.47,0,0,0-6.15-2.75c-3.92,0-6.68,2.49-6.68,7.47s2.76,7.47,6.68,7.47A7.64,7.64,0,0,0,236,30.34l4.34,4.34a13.88,13.88,0,0,1-10.49,4.45c-8,0-13.78-5.14-13.78-13.51s5.78-13.52,13.78-13.52A13.89,13.89,0,0,1,240.31,16.56Z"></path><path d="M256,12.1c7.84,0,13.41,5.36,13.41,13.52S263.79,39.13,256,39.13s-13.46-5.35-13.46-13.51S248.11,12.1,256,12.1Zm0,21c4.13,0,6.36-2.91,6.36-7.47s-2.23-7.47-6.36-7.47-6.36,2.91-6.36,7.47S251.82,33.09,256,33.09Z"></path><path d="M281.39,29.22V38.6H274.5v-26h6.89V18c1.8-4.3,5.25-5.89,9.22-5.89v7.32C283.3,19.42,281.39,22.76,281.39,29.22Z"></path><path d="M317.48,27.21h-17.7c.48,4.13,3,6.3,6.68,6.3A8.85,8.85,0,0,0,313,31L317,34.89a15.66,15.66,0,0,1-11.13,4.24c-8,0-13.19-5.19-13.19-13.51s5.93-13.52,13.09-13.52c7.57,0,11.76,4.67,11.76,12.3Zm-7.1-4.66c0-2.87-1.59-5.15-4.88-5.15-3,0-4.87,1.86-5.56,5.15Z"></path></g><g id="clearscore-logo-wordmark_svg__Logomarks"><path d="M2.39.44V23.38a12.15,12.15,0,0,1,6.9,0v-16H33.65V31.7h-16a12.37,12.37,0,0,1,.5,3.46,12.17,12.17,0,0,1-.5,3.44H40.55V.44Z"></path><circle cx="5.84" cy="35.16" r="5.38"></circle></g></svg>